<svg width="512" height="512" viewBox="0 0 512 512" fill="none" xmlns="http://www.w3.org/2000/svg">
  <!-- الخلفية الخضراء الزاهية -->
  <rect width="512" height="512" rx="120" fill="#00e676"/>
  
  <!-- جسم الكرة الأبيض -->
  <circle cx="256" cy="256" r="160" fill="white"/>
  
  <!-- المضلعات السوداء الكلاسيكية (توزيع حقيقي) -->
  <g fill="#1a1a1a">
    <!-- المضلع المركزي -->
    <path d="M256 180L305 215V275L256 310L207 275V215L256 180Z" />
    
    <!-- المضلعات المحيطة المنحنية -->
    <path d="M256 96L290 130H222L256 96Z" />
    <path d="M416 256L380 220V292L416 256Z" />
    <path d="M96 256L132 292V220L96 256Z" />
    <path d="M256 416L222 382H290L256 416Z" />
    
    <!-- مضلعات الزوايا -->
    <path d="M370 130L400 160L350 175L370 130Z" />
    <path d="M142 130L112 160L162 175L142 130Z" />
    <path d="M370 382L400 352L350 337L370 382Z" />
    <path d="M142 382L112 352L162 337L142 382Z" />
  </g>
  
  <!-- خطوط الربط لإعطاء شكل كروي -->
  <g stroke="#1a1a1a" stroke-width="4" stroke-opacity="0.1">
    <circle cx="256" cy="256" r="160" fill="none" />
  </g>
  
  <!-- ظل خفيف تحت الكرة لإعطاء عمق -->
  <defs>
    <radialGradient id="ballShadow" cx="50%" cy="50%" r="50%" fx="50%" fy="50%">
      <stop offset="85%" stop-color="black" stop-opacity="0"/>
      <stop offset="100%" stop-color="black" stop-opacity="0.15"/>
    </radialGradient>
  </defs>
  <circle cx="256" cy="256" r="160" fill="url(#ballShadow)"/>
</svg>